<mxfile host="app.diagrams.net" agent="Mozilla/5.0 (Windows NT 10.0; Win64; x64) AppleWebKit/537.36 (KHTML, like Gecko) Chrome/131.0.0.0 Safari/537.36" version="24.8.2">
  <diagram name="Halaman-1" id="9hRhDR9CCfB7Tcyf1xd3">
    <mxGraphModel dx="891" dy="493" grid="1" gridSize="10" guides="1" tooltips="1" connect="1" arrows="1" fold="1" page="1" pageScale="1" pageWidth="827" pageHeight="1169" math="0" shadow="0">
      <root>
        <mxCell id="0" />
        <mxCell id="1" parent="0" />
        <mxCell id="Lfnw-qP_RfuRgFgKXKS7-1" value="&lt;span style=&quot;color: rgb(44, 62, 80); font-weight: 700; font-kerning: none;&quot; class=&quot;OYPEnA font-feature-liga-off font-feature-clig-off font-feature-calt-off text-decoration-none text-strikethrough-none&quot;&gt;&lt;font style=&quot;font-size: 20px;&quot;&gt;Server Utama&lt;/font&gt;&lt;/span&gt;" style="verticalAlign=top;align=left;spacingTop=8;spacingLeft=2;spacingRight=12;shape=cube;size=10;direction=south;fontStyle=4;html=1;whiteSpace=wrap;" vertex="1" parent="1">
          <mxGeometry x="40" y="620" width="180" height="120" as="geometry" />
        </mxCell>
        <mxCell id="Lfnw-qP_RfuRgFgKXKS7-3" value="&lt;span style=&quot;color: rgb(44, 62, 80); font-weight: 700; font-kerning: none; font-size: 20px;&quot; class=&quot;OYPEnA font-feature-liga-off font-feature-clig-off font-feature-calt-off text-decoration-none text-strikethrough-none&quot;&gt;Caching Server&lt;/span&gt;" style="verticalAlign=top;align=left;spacingTop=8;spacingLeft=2;spacingRight=12;shape=cube;size=10;direction=south;fontStyle=4;html=1;whiteSpace=wrap;" vertex="1" parent="1">
          <mxGeometry x="324" y="620" width="180" height="120" as="geometry" />
        </mxCell>
        <mxCell id="Lfnw-qP_RfuRgFgKXKS7-4" value="" style="verticalAlign=top;align=left;spacingTop=8;spacingLeft=2;spacingRight=12;shape=cube;size=10;direction=south;fontStyle=4;html=1;whiteSpace=wrap;rotation=0;" vertex="1" parent="1">
          <mxGeometry x="324" y="210" width="180" height="120" as="geometry" />
        </mxCell>
        <mxCell id="Lfnw-qP_RfuRgFgKXKS7-6" value="&lt;span style=&quot;color: rgb(44, 62, 80); font-weight: 700; font-kerning: none;&quot; class=&quot;OYPEnA font-feature-liga-off font-feature-clig-off font-feature-calt-off text-decoration-none text-strikethrough-none&quot;&gt;&lt;font style=&quot;font-size: 20px;&quot;&gt;Caching Server&lt;/font&gt;&lt;/span&gt;" style="verticalAlign=top;align=left;spacingTop=8;spacingLeft=2;spacingRight=12;shape=cube;size=10;direction=south;fontStyle=4;html=1;whiteSpace=wrap;" vertex="1" parent="1">
          <mxGeometry x="324" y="404" width="180" height="120" as="geometry" />
        </mxCell>
        <mxCell id="Lfnw-qP_RfuRgFgKXKS7-7" value="&lt;span style=&quot;color: rgb(44, 62, 80); font-weight: 700; font-kerning: none;&quot; class=&quot;OYPEnA font-feature-liga-off font-feature-clig-off font-feature-calt-off text-decoration-none text-strikethrough-none&quot;&gt;&lt;font style=&quot;font-size: 20px;&quot;&gt;Internet Gateway&lt;/font&gt;&lt;/span&gt;" style="verticalAlign=top;align=left;spacingTop=8;spacingLeft=2;spacingRight=12;shape=cube;size=10;direction=south;fontStyle=4;html=1;whiteSpace=wrap;" vertex="1" parent="1">
          <mxGeometry x="600" y="620" width="180" height="120" as="geometry" />
        </mxCell>
        <mxCell id="Lfnw-qP_RfuRgFgKXKS7-20" style="edgeStyle=orthogonalEdgeStyle;rounded=0;orthogonalLoop=1;jettySize=auto;html=1;exitX=0;exitY=0;exitDx=120;exitDy=95;exitPerimeter=0;entryX=0.05;entryY=0.527;entryDx=0;entryDy=0;entryPerimeter=0;" edge="1" parent="1" source="Lfnw-qP_RfuRgFgKXKS7-4" target="Lfnw-qP_RfuRgFgKXKS7-6">
          <mxGeometry relative="1" as="geometry" />
        </mxCell>
        <mxCell id="Lfnw-qP_RfuRgFgKXKS7-29" style="rounded=0;orthogonalLoop=1;jettySize=auto;html=1;exitX=1;exitY=1;exitDx=0;exitDy=0;exitPerimeter=0;entryX=0;entryY=0;entryDx=0;entryDy=0;entryPerimeter=0;" edge="1" parent="1" source="Lfnw-qP_RfuRgFgKXKS7-6" target="Lfnw-qP_RfuRgFgKXKS7-1">
          <mxGeometry relative="1" as="geometry" />
        </mxCell>
        <mxCell id="Lfnw-qP_RfuRgFgKXKS7-31" style="edgeStyle=orthogonalEdgeStyle;rounded=0;orthogonalLoop=1;jettySize=auto;html=1;exitX=0;exitY=0;exitDx=120;exitDy=95;exitPerimeter=0;entryX=0.083;entryY=0.527;entryDx=0;entryDy=0;entryPerimeter=0;" edge="1" parent="1" source="Lfnw-qP_RfuRgFgKXKS7-6" target="Lfnw-qP_RfuRgFgKXKS7-3">
          <mxGeometry relative="1" as="geometry" />
        </mxCell>
        <mxCell id="Lfnw-qP_RfuRgFgKXKS7-32" style="rounded=0;orthogonalLoop=1;jettySize=auto;html=1;exitX=0;exitY=0;exitDx=120;exitDy=10;exitPerimeter=0;entryX=0;entryY=0;entryDx=5;entryDy=175;entryPerimeter=0;" edge="1" parent="1" source="Lfnw-qP_RfuRgFgKXKS7-6" target="Lfnw-qP_RfuRgFgKXKS7-7">
          <mxGeometry relative="1" as="geometry" />
        </mxCell>
        <mxCell id="Lfnw-qP_RfuRgFgKXKS7-33" value="" style="shape=note;whiteSpace=wrap;html=1;backgroundOutline=1;darkOpacity=0.05;" vertex="1" parent="1">
          <mxGeometry x="329.5" y="235" width="160" height="70" as="geometry" />
        </mxCell>
        <mxCell id="Lfnw-qP_RfuRgFgKXKS7-34" value="&lt;span style=&quot;color: rgb(44, 62, 80); font-weight: 700; font-kerning: none; font-size: 20px;&quot; class=&quot;OYPEnA font-feature-liga-off font-feature-clig-off font-feature-calt-off text-decoration-none text-strikethrough-none&quot;&gt;Modem Bank&lt;/span&gt;" style="text;html=1;align=center;verticalAlign=middle;whiteSpace=wrap;rounded=0;fontSize=20;" vertex="1" parent="1">
          <mxGeometry x="337.5" y="260" width="140" height="30" as="geometry" />
        </mxCell>
      </root>
    </mxGraphModel>
  </diagram>
</mxfile>
